<svg xmlns="http://www.w3.org/2000/svg" viewBox="0 0 64 64" width="64" height="64">
  <!-- User icon -->
  <circle cx="32" cy="16" r="8" fill="#4CAF50" />
  <path d="M32 28c-6.627 0-12 5.373-12 12v8h24v-8c0-6.627-5.373-12-12-12z" fill="#4CAF50" />
  
  <!-- Gear icon -->
  <circle cx="48" cy="48" r="6" fill="#FFC107" />
  <path d="M48 58a7.98 7.98 0 01-6.598-3.49l-3.787 2.187a1 1 0 01-1.364-1.364l2.187-3.787A7.98 7.98 0 0138 48c0-.64.08-1.258.219-1.854l-2.187-3.787a1 1 0 011.364-1.364l3.787 2.187A7.98 7.98 0 0148 38c.64 0 1.258.08 1.854.219l3.787-2.187a1 1 0 011.364 1.364l-2.187 3.787c.274.676.46 1.406.553 2.165l3.787 2.187a1 1 0 01-1.364 1.364l-2.187-3.787A7.98 7.98 0 0148 58zM48 52c2.209 0 4-1.791 4-4s-1.791-4-4-4-4 1.791-4 4 1.791 4 4 4z" fill="#FFC107" />
  
  <!-- Connection line -->
  <path d="M40 36h4v4h-4z" fill="#4CAF50" />
  <path d="M36 40h8v4h-8z" fill="#4CAF50" />
</svg>
